<?xml version="1.0" encoding="utf-8"?>
<!-- Generator: Adobe Illustrator 27.0.0, SVG Export Plug-In . SVG Version: 6.00 Build 0)  -->
<svg version="1.1" id="Layer_1" xmlns="http://www.w3.org/2000/svg" xmlns:xlink="http://www.w3.org/1999/xlink" x="0px" y="0px"
	 viewBox="0 0 441.98 139.65" style="enable-background:new 0 0 441.98 139.65;" xml:space="preserve">
<style type="text/css">
	.st0{fill:#649E92;}
	.st1{fill:#267261;}
	.st2{fill:#203D59;}
	.st3{fill:#127B3E;}
	.st4{fill:#606178;}
	.st5{fill:#54668E;}
	.st6{fill:#A23D61;}
	.st7{fill:#808285;}
	.st8{fill:#6D6C93;}
	.st9{fill:#55896D;}
	.st10{fill:#BF8362;}
	.st11{fill:#999868;}
	.st12{fill:#6D6E71;}
	.st13{fill:#FFD107;}
</style>
<g>
	<path class="st7" d="M134.58,92.13c-3.24,0-6.21-0.81-8.89-2.43c-2.69-1.62-4.84-3.77-6.46-6.46c-1.62-2.69-2.43-5.65-2.43-8.89
		v-7.04h16.89v6.27c0,0.43,0.15,0.79,0.45,1.09c0.3,0.3,0.66,0.45,1.09,0.45h55.15c0.43,0,0.79-0.15,1.09-0.45
		c0.3-0.3,0.45-0.66,0.45-1.09V56.05c0-0.43-0.15-0.77-0.45-1.02c-0.3-0.26-0.66-0.38-1.09-0.38h-55.79c-3.24,0-6.21-0.81-8.89-2.43
		c-2.69-1.62-4.84-3.77-6.46-6.46c-1.62-2.69-2.43-5.69-2.43-9.02V17.79c0-3.24,0.81-6.21,2.43-8.89c1.62-2.69,3.77-4.84,6.46-6.46
		c2.69-1.62,5.65-2.43,8.89-2.43h56.56c3.24,0,6.21,0.81,8.89,2.43c2.69,1.62,4.84,3.77,6.46,6.46c1.62,2.69,2.43,5.65,2.43,8.89
		v7.04h-17.02v-6.27c0-0.43-0.15-0.79-0.45-1.09c-0.3-0.3-0.66-0.45-1.09-0.45h-55.15c-0.43,0-0.79,0.15-1.09,0.45
		c-0.3,0.3-0.45,0.66-0.45,1.09v17.53c0,0.43,0.15,0.77,0.45,1.02c0.3,0.26,0.66,0.38,1.09,0.38h55.92c3.24,0,6.21,0.81,8.89,2.43
		c2.69,1.62,4.84,3.77,6.46,6.46c1.62,2.69,2.43,5.69,2.43,9.02v18.94c0,3.24-0.81,6.21-2.43,8.89c-1.62,2.69-3.77,4.84-6.46,6.46
		c-2.69,1.62-5.65,2.43-8.89,2.43H134.58z"/>
	<path class="st7" d="M251.36,92.13c-3.24,0-6.21-0.81-8.89-2.43c-2.69-1.62-4.84-3.77-6.46-6.46c-1.62-2.69-2.43-5.65-2.43-8.89
		V17.79c0-3.24,0.81-6.21,2.43-8.89c1.62-2.69,3.78-4.84,6.46-6.46c2.69-1.62,5.65-2.43,8.89-2.43h74.09v17.02h-70.5
		c-1.37,0-2.45,0.38-3.26,1.15c-0.81,0.77-1.22,1.88-1.22,3.33v49.14c0,1.37,0.4,2.45,1.22,3.26c0.81,0.81,1.9,1.22,3.26,1.22h70.5
		v17.02H251.36z"/>
	<path class="st7" d="M367.89,92.13c-3.24,0-6.21-0.81-8.89-2.43c-2.69-1.62-4.84-3.77-6.46-6.46c-1.62-2.69-2.43-5.65-2.43-8.89
		V17.79c0-3.24,0.81-6.21,2.43-8.89c1.62-2.69,3.78-4.84,6.46-6.46c2.69-1.62,5.65-2.43,8.89-2.43h74.09v17.02h-70.5
		c-1.37,0-2.45,0.38-3.26,1.15c-0.81,0.77-1.22,1.88-1.22,3.33v49.14c0,1.37,0.4,2.45,1.22,3.26c0.81,0.81,1.9,1.22,3.26,1.22h70.5
		v17.02H367.89z"/>
	<g>
		<path class="st8" d="M54.55,54.54v37.59h19.8c3.24,0,6.21-0.81,8.89-2.43c2.69-1.62,4.84-3.78,6.46-6.46
			c1.62-2.69,2.44-5.65,2.44-8.9v-19.8H54.55z"/>
		<path class="st9" d="M37.6,37.6V0H17.79c-3.24,0-6.2,0.81-8.89,2.43C6.21,4.05,4.06,6.21,2.44,8.89c-1.62,2.69-2.43,5.66-2.43,8.9
			V37.6H37.6z"/>
		<path class="st10" d="M54.55,37.6h37.59V17.79c0-3.24-0.82-6.21-2.44-8.9c-1.62-2.68-3.77-4.84-6.46-6.46
			C80.56,0.81,77.59,0,74.35,0h-19.8V37.6z"/>
		<path class="st11" d="M37.6,54.54H0.01v19.8c0,3.25,0.81,6.21,2.43,8.9c1.62,2.68,3.77,4.84,6.46,6.46
			c2.69,1.62,5.65,2.43,8.89,2.43H37.6V54.54z"/>
	</g>
	<g>
		<path class="st12" d="M4.76,134.82c-0.63,0-1.2-0.16-1.72-0.47s-0.93-0.73-1.25-1.25s-0.47-1.09-0.47-1.72v-10.91
			c0-0.62,0.16-1.2,0.47-1.72c0.31-0.52,0.73-0.93,1.25-1.25s1.09-0.47,1.72-0.47h10.91c0.62,0,1.2,0.16,1.72,0.47
			c0.52,0.31,0.93,0.73,1.25,1.25c0.31,0.52,0.47,1.09,0.47,1.72v10.91c0,0.63-0.16,1.2-0.47,1.72s-0.73,0.93-1.25,1.25
			c-0.52,0.31-1.09,0.47-1.72,0.47H4.76z M4.89,131.54H15.5c0.08,0,0.16-0.03,0.22-0.09s0.1-0.13,0.1-0.21v-10.62
			c0-0.08-0.03-0.15-0.1-0.21s-0.14-0.09-0.22-0.09H4.89c-0.08,0-0.15,0.03-0.21,0.09s-0.09,0.13-0.09,0.21v10.62
			c0,0.08,0.03,0.15,0.09,0.21S4.81,131.54,4.89,131.54z"/>
		<path class="st12" d="M21.77,140.5v-20h11.13c0.62,0,1.2,0.16,1.71,0.47c0.52,0.31,0.93,0.72,1.23,1.23s0.46,1.08,0.46,1.7v7.5
			c0,0.61-0.15,1.17-0.46,1.69s-0.72,0.93-1.23,1.25c-0.52,0.31-1.09,0.47-1.71,0.47h-7.9v5.68H21.77z M25.3,131.59h7.48
			c0.08,0,0.15-0.03,0.21-0.09s0.09-0.13,0.09-0.21v-7.26c0-0.08-0.03-0.15-0.09-0.21s-0.13-0.09-0.21-0.09H25.3
			c-0.08,0-0.15,0.03-0.21,0.09s-0.09,0.13-0.09,0.21v7.26c0,0.08,0.03,0.15,0.09,0.21S25.22,131.59,25.3,131.59z"/>
		<path class="st12" d="M39.81,134.35c-0.52-0.31-0.93-0.73-1.25-1.25s-0.47-1.08-0.47-1.69v-7.5c0-0.62,0.16-1.19,0.47-1.7
			s0.73-0.92,1.25-1.23s1.08-0.47,1.69-0.47h7.73c0.62,0,1.2,0.15,1.72,0.46c0.52,0.3,0.93,0.72,1.23,1.23s0.46,1.09,0.46,1.72v5.38
			H41.32v2c0,0.08,0.03,0.15,0.09,0.21s0.13,0.09,0.21,0.09h11.01v3.23H41.5C40.89,134.82,40.32,134.66,39.81,134.35z M41.32,126.38
			h8.07v-2.35c0-0.08-0.03-0.15-0.09-0.21s-0.13-0.09-0.21-0.09h-7.48c-0.08,0-0.15,0.03-0.21,0.09s-0.09,0.13-0.09,0.21V126.38z"/>
		<path class="st12" d="M55.25,134.82V120.5h11.13c0.62,0,1.2,0.16,1.71,0.47c0.52,0.31,0.93,0.72,1.23,1.23s0.46,1.08,0.46,1.7
			v10.91h-3.23v-10.79c0-0.08-0.03-0.15-0.09-0.21s-0.13-0.09-0.21-0.09h-7.48c-0.08,0-0.15,0.03-0.21,0.09s-0.09,0.13-0.09,0.21
			v10.79H55.25z"/>
		<path class="st12" d="M83.39,134.82c-0.62,0-1.2-0.16-1.71-0.47c-0.52-0.31-0.93-0.73-1.25-1.25s-0.47-1.09-0.47-1.72v-1.36h3.26
			v1.21c0,0.08,0.03,0.15,0.09,0.21s0.13,0.09,0.21,0.09h10.64c0.08,0,0.15-0.03,0.21-0.09c0.06-0.06,0.09-0.13,0.09-0.21v-3.38
			c0-0.08-0.03-0.15-0.09-0.2c-0.06-0.05-0.13-0.07-0.21-0.07H83.39c-0.62,0-1.2-0.16-1.71-0.47c-0.52-0.31-0.93-0.73-1.25-1.25
			c-0.31-0.52-0.47-1.1-0.47-1.74v-3.65c0-0.62,0.16-1.2,0.47-1.72c0.31-0.52,0.73-0.93,1.25-1.25c0.52-0.31,1.09-0.47,1.71-0.47
			H94.3c0.63,0,1.2,0.16,1.72,0.47s0.93,0.73,1.25,1.25c0.31,0.52,0.47,1.09,0.47,1.72v1.36h-3.28v-1.21c0-0.08-0.03-0.15-0.09-0.21
			c-0.06-0.06-0.13-0.09-0.21-0.09H83.51c-0.08,0-0.15,0.03-0.21,0.09s-0.09,0.13-0.09,0.21v3.38c0,0.08,0.03,0.15,0.09,0.2
			c0.06,0.05,0.13,0.07,0.21,0.07H94.3c0.63,0,1.2,0.16,1.72,0.47c0.52,0.31,0.93,0.73,1.25,1.25s0.47,1.1,0.47,1.74v3.65
			c0,0.63-0.16,1.2-0.47,1.72s-0.73,0.93-1.25,1.25s-1.09,0.47-1.72,0.47H83.39z"/>
		<path class="st12" d="M102.01,134.35c-0.52-0.31-0.93-0.73-1.25-1.25s-0.47-1.08-0.47-1.69v-7.5c0-0.62,0.16-1.19,0.47-1.7
			s0.73-0.92,1.25-1.23s1.08-0.47,1.69-0.47h7.73c0.62,0,1.2,0.15,1.72,0.46c0.52,0.3,0.93,0.72,1.23,1.23s0.46,1.09,0.46,1.72v7.5
			c0,0.61-0.15,1.17-0.46,1.69s-0.71,0.93-1.22,1.25s-1.09,0.47-1.73,0.47h-7.73C103.09,134.82,102.53,134.66,102.01,134.35z
			 M103.83,131.59h7.48c0.08,0,0.15-0.03,0.21-0.09s0.09-0.13,0.09-0.21v-7.26c0-0.08-0.03-0.15-0.09-0.21s-0.13-0.09-0.21-0.09
			h-7.48c-0.08,0-0.15,0.03-0.21,0.09s-0.09,0.13-0.09,0.21v7.26c0,0.08,0.03,0.15,0.09,0.21S103.74,131.59,103.83,131.59z"/>
		<path class="st12" d="M118.48,134.35c-0.52-0.31-0.93-0.73-1.23-1.25s-0.46-1.08-0.46-1.69V120.5h3.23v10.79
			c0,0.08,0.03,0.15,0.09,0.21c0.06,0.06,0.13,0.09,0.21,0.09h7.48c0.08,0,0.15-0.03,0.21-0.09s0.09-0.13,0.09-0.21V120.5h3.23
			v10.91c0,0.61-0.15,1.17-0.46,1.69s-0.71,0.93-1.22,1.25c-0.51,0.31-1.09,0.47-1.73,0.47h-7.73
			C119.57,134.82,119,134.66,118.48,134.35z"/>
		<path class="st12" d="M133.92,134.82v-10.91c0-0.62,0.16-1.19,0.47-1.7c0.31-0.51,0.73-0.92,1.25-1.23s1.08-0.47,1.69-0.47h7.95
			v3.23h-7.83c-0.08,0-0.15,0.03-0.21,0.09s-0.09,0.13-0.09,0.21v10.79H133.92z"/>
		<path class="st12" d="M148.5,134.35c-0.52-0.31-0.93-0.73-1.25-1.25s-0.47-1.08-0.47-1.69v-7.5c0-0.62,0.16-1.19,0.47-1.7
			s0.73-0.92,1.25-1.23s1.08-0.47,1.69-0.47h11.11v3.23h-10.99c-0.08,0-0.15,0.03-0.21,0.09s-0.09,0.13-0.09,0.21v7.26
			c0,0.08,0.03,0.15,0.09,0.21s0.13,0.09,0.21,0.09h11.01v3.23h-11.13C149.58,134.82,149.01,134.66,148.5,134.35z"/>
		<path class="st12" d="M165.03,134.35c-0.52-0.31-0.93-0.73-1.25-1.25s-0.47-1.08-0.47-1.69v-7.5c0-0.62,0.16-1.19,0.47-1.7
			s0.73-0.92,1.25-1.23s1.08-0.47,1.69-0.47h7.73c0.62,0,1.2,0.15,1.72,0.46c0.52,0.3,0.93,0.72,1.23,1.23s0.46,1.09,0.46,1.72v5.38
			h-11.31v2c0,0.08,0.03,0.15,0.09,0.21s0.13,0.09,0.21,0.09h11.01v3.23h-11.13C166.12,134.82,165.55,134.66,165.03,134.35z
			 M166.55,126.38h8.07v-2.35c0-0.08-0.03-0.15-0.09-0.21s-0.13-0.09-0.21-0.09h-7.48c-0.08,0-0.15,0.03-0.21,0.09
			s-0.09,0.13-0.09,0.21V126.38z"/>
		<path class="st12" d="M191.51,134.82c-0.62,0-1.2-0.16-1.72-0.47c-0.52-0.31-0.93-0.73-1.25-1.25s-0.47-1.09-0.47-1.72v-10.91
			c0-0.62,0.16-1.2,0.47-1.72c0.31-0.52,0.73-0.93,1.25-1.25c0.52-0.31,1.09-0.47,1.72-0.47h14.29v3.28h-13.6
			c-0.26,0-0.47,0.07-0.63,0.22s-0.23,0.36-0.23,0.64v9.48c0,0.26,0.08,0.47,0.23,0.63s0.37,0.23,0.63,0.23h13.6v3.28H191.51z"/>
		<path class="st12" d="M209.96,134.35c-0.52-0.31-0.93-0.73-1.25-1.25s-0.47-1.08-0.47-1.69v-7.5c0-0.62,0.16-1.19,0.47-1.7
			s0.73-0.92,1.25-1.23s1.08-0.47,1.69-0.47h7.73c0.62,0,1.2,0.15,1.72,0.46c0.52,0.3,0.93,0.72,1.23,1.23s0.46,1.09,0.46,1.72v7.5
			c0,0.61-0.15,1.17-0.46,1.69s-0.71,0.93-1.22,1.25s-1.09,0.47-1.73,0.47h-7.73C211.04,134.82,210.48,134.66,209.96,134.35z
			 M211.78,131.59h7.48c0.08,0,0.15-0.03,0.21-0.09s0.09-0.13,0.09-0.21v-7.26c0-0.08-0.03-0.15-0.09-0.21s-0.13-0.09-0.21-0.09
			h-7.48c-0.08,0-0.15,0.03-0.21,0.09s-0.09,0.13-0.09,0.21v7.26c0,0.08,0.03,0.15,0.09,0.21S211.69,131.59,211.78,131.59z"/>
		<path class="st12" d="M225.4,134.82V120.5h17.75c0.64,0,1.22,0.16,1.73,0.47c0.51,0.31,0.92,0.72,1.22,1.23s0.46,1.08,0.46,1.7
			v10.91h-3.21v-10.79c0-0.08-0.03-0.15-0.1-0.21s-0.14-0.09-0.22-0.09h-5.11c-0.08,0-0.15,0.03-0.21,0.09s-0.09,0.13-0.09,0.21
			v10.79h-3.26v-10.79c0-0.08-0.03-0.15-0.09-0.21c-0.06-0.06-0.13-0.09-0.21-0.09h-5.13c-0.08,0-0.15,0.03-0.21,0.09
			s-0.09,0.13-0.09,0.21v10.79H225.4z"/>
		<path class="st12" d="M248.49,134.82V120.5h17.75c0.64,0,1.22,0.16,1.73,0.47c0.51,0.31,0.92,0.72,1.22,1.23s0.46,1.08,0.46,1.7
			v10.91h-3.21v-10.79c0-0.08-0.03-0.15-0.1-0.21s-0.14-0.09-0.22-0.09H261c-0.08,0-0.15,0.03-0.21,0.09s-0.09,0.13-0.09,0.21v10.79
			h-3.26v-10.79c0-0.08-0.03-0.15-0.09-0.21c-0.06-0.06-0.13-0.09-0.21-0.09h-5.13c-0.08,0-0.15,0.03-0.21,0.09
			s-0.09,0.13-0.09,0.21v10.79H248.49z"/>
		<path class="st12" d="M274.29,134.35c-0.52-0.31-0.93-0.73-1.23-1.25s-0.46-1.08-0.46-1.69V120.5h3.23v10.79
			c0,0.08,0.03,0.15,0.09,0.21c0.06,0.06,0.13,0.09,0.21,0.09h7.48c0.08,0,0.15-0.03,0.21-0.09s0.09-0.13,0.09-0.21V120.5h3.23
			v10.91c0,0.61-0.15,1.17-0.46,1.69s-0.71,0.93-1.22,1.25c-0.51,0.31-1.09,0.47-1.73,0.47h-7.73
			C275.38,134.82,274.81,134.66,274.29,134.35z"/>
		<path class="st12" d="M289.83,134.82V120.5h11.13c0.62,0,1.2,0.16,1.71,0.47c0.52,0.31,0.93,0.72,1.23,1.23s0.46,1.08,0.46,1.7
			v10.91h-3.23v-10.79c0-0.08-0.03-0.15-0.09-0.21s-0.13-0.09-0.21-0.09h-7.48c-0.08,0-0.15,0.03-0.21,0.09s-0.09,0.13-0.09,0.21
			v10.79H289.83z"/>
		<path class="st12" d="M306.96,119.07v-3.26h3.23v3.26H306.96z M306.96,134.82V120.5h3.23v14.32H306.96z"/>
		<path class="st12" d="M314.52,134.35c-0.51-0.31-0.92-0.73-1.23-1.25s-0.47-1.08-0.47-1.69v-15.31h3.23v4.39h5.58v3.23h-5.58v7.55
			c0,0.08,0.03,0.15,0.09,0.21c0.06,0.06,0.13,0.09,0.21,0.09h5.28v3.23h-5.41C315.6,134.82,315.03,134.66,314.52,134.35z"/>
		<path class="st12" d="M325.92,140.13v-3.26h8.62c0.08,0,0.15-0.03,0.21-0.09c0.06-0.06,0.09-0.13,0.09-0.21v-1.75h-7.9
			c-0.63,0-1.19-0.16-1.7-0.47c-0.51-0.31-0.92-0.72-1.23-1.23s-0.47-1.08-0.47-1.7v-10.86h3.23v10.74c0,0.08,0.03,0.15,0.09,0.21
			c0.06,0.06,0.13,0.09,0.21,0.09h7.48c0.08,0,0.15-0.03,0.21-0.09c0.06-0.06,0.09-0.13,0.09-0.21v-10.74h3.23v16.17
			c0,0.63-0.15,1.2-0.44,1.72c-0.3,0.52-0.7,0.93-1.22,1.23s-1.09,0.46-1.72,0.46H325.92z"/>
		<path class="st12" d="M351.77,134.82c-0.62,0-1.2-0.16-1.72-0.47c-0.52-0.31-0.93-0.73-1.25-1.25s-0.47-1.09-0.47-1.72v-10.91
			c0-0.62,0.16-1.2,0.47-1.72c0.31-0.52,0.73-0.93,1.25-1.25c0.52-0.31,1.09-0.47,1.72-0.47h14.29v3.28h-13.6
			c-0.26,0-0.47,0.07-0.63,0.22s-0.23,0.36-0.23,0.64v9.48c0,0.26,0.08,0.47,0.23,0.63s0.37,0.23,0.63,0.23h13.6v3.28H351.77z"/>
		<path class="st12" d="M370.05,134.35c-0.52-0.31-0.93-0.73-1.25-1.25s-0.47-1.08-0.47-1.69v-7.5c0-0.62,0.16-1.19,0.47-1.7
			s0.73-0.92,1.25-1.23s1.08-0.47,1.69-0.47h7.73c0.62,0,1.2,0.15,1.72,0.46c0.52,0.3,0.93,0.72,1.23,1.23s0.46,1.09,0.46,1.72v5.38
			h-11.31v2c0,0.08,0.03,0.15,0.09,0.21s0.13,0.09,0.21,0.09h11.01v3.23h-11.13C371.13,134.82,370.57,134.66,370.05,134.35z
			 M371.57,126.38h8.07v-2.35c0-0.08-0.03-0.15-0.09-0.21s-0.13-0.09-0.21-0.09h-7.48c-0.08,0-0.15,0.03-0.21,0.09
			s-0.09,0.13-0.09,0.21V126.38z"/>
		<path class="st12" d="M385.49,134.82V120.5h11.13c0.62,0,1.2,0.16,1.71,0.47c0.52,0.31,0.93,0.72,1.23,1.23s0.46,1.08,0.46,1.7
			v10.91h-3.23v-10.79c0-0.08-0.03-0.15-0.09-0.21s-0.13-0.09-0.21-0.09h-7.48c-0.08,0-0.15,0.03-0.21,0.09s-0.09,0.13-0.09,0.21
			v10.79H385.49z"/>
		<path class="st12" d="M404.35,134.35c-0.51-0.31-0.92-0.73-1.23-1.25s-0.47-1.08-0.47-1.69v-15.31h3.23v4.39h5.58v3.23h-5.58v7.55
			c0,0.08,0.03,0.15,0.09,0.21c0.06,0.06,0.13,0.09,0.21,0.09h5.28v3.23h-5.41C405.43,134.82,404.86,134.66,404.35,134.35z"/>
		<path class="st12" d="M415.12,134.35c-0.52-0.31-0.93-0.73-1.25-1.25s-0.47-1.08-0.47-1.69v-7.5c0-0.62,0.16-1.19,0.47-1.7
			s0.73-0.92,1.25-1.23s1.08-0.47,1.69-0.47h7.73c0.62,0,1.2,0.15,1.72,0.46c0.52,0.3,0.93,0.72,1.23,1.23s0.46,1.09,0.46,1.72v5.38
			h-11.31v2c0,0.08,0.03,0.15,0.09,0.21s0.13,0.09,0.21,0.09h11.01v3.23h-11.13C416.21,134.82,415.64,134.66,415.12,134.35z
			 M416.64,126.38h8.07v-2.35c0-0.08-0.03-0.15-0.09-0.21s-0.13-0.09-0.21-0.09h-7.48c-0.08,0-0.15,0.03-0.21,0.09
			s-0.09,0.13-0.09,0.21V126.38z"/>
		<path class="st12" d="M430.37,134.82v-10.91c0-0.62,0.16-1.19,0.47-1.7c0.31-0.51,0.73-0.92,1.25-1.23s1.08-0.47,1.69-0.47h7.95
			v3.23h-7.83c-0.08,0-0.15,0.03-0.21,0.09s-0.09,0.13-0.09,0.21v10.79H430.37z"/>
	</g>
</g>
</svg>
